<svg width="80" height="43" viewBox="0 0 230 113" fill="none" xmlns="http://www.w3.org/2000/svg">
<style>
.col-bg { 
    fill: #000 ;
    padding: 1120px;}
.col-txt {
    fill: #000 ;
    padding: 1120px;}

.col-fg {
    fill: #214fc7;
    padding: 1120px;
    z-index: -1;}

.button {
    width: 200px;
}
}
</style>
<path class="col-bg" d="M10 46C10 24.4609 27.4609 7 49 7H191C212.539 7 230 24.4609 230 46V74C230 95.5391 212.539 113 191 113H49C27.4609 113 10 95.5391 10 74V46Z" fill="black"/>
<path class="col-fg" d="M3.5 39C3.5 19.3939 19.3939 3.5 39 3.5H181C200.606 3.5 216.5 19.3939 216.5 39V67C216.5 86.6061 200.606 102.5 181 102.5H39C19.3939 102.5 3.5 86.6061 3.5 67V39Z" fill="#F64740" stroke="black" stroke-width="7"/>
<path class="col-txt" d="M63.6513 44L69.5393 20.64H74.6913L80.6112 44H76.5153L75.2353 38.336H69.0273L67.7473 44H63.6513ZM69.7633 35.072H74.4993L73.0913 28.8C72.8566 27.7547 72.6539 26.816 72.4833 25.984C72.3126 25.1307 72.1953 24.512 72.1313 24.128C72.0673 24.512 71.9499 25.1307 71.7793 25.984C71.6299 26.816 71.4273 27.744 71.1713 28.768L69.7633 35.072ZM92.8228 44.32C91.3721 44.32 90.2201 43.9147 89.3668 43.104C88.5134 42.272 88.0868 41.1413 88.0868 39.712L88.9828 40.64H88.0868V44H84.1828V20.64H88.1828V25.568L88.0548 29.76H88.9828L88.0868 30.688C88.0868 29.2587 88.5134 28.1387 89.3668 27.328C90.2201 26.496 91.3721 26.08 92.8228 26.08C94.5934 26.08 96.0121 26.688 97.0788 27.904C98.1454 29.12 98.6788 30.7627 98.6788 32.832V37.6C98.6788 39.648 98.1454 41.28 97.0788 42.496C96.0121 43.712 94.5934 44.32 92.8228 44.32ZM91.4148 40.864C92.4388 40.864 93.2388 40.5653 93.8148 39.968C94.3908 39.3707 94.6788 38.5173 94.6788 37.408V32.992C94.6788 31.8827 94.3908 31.0293 93.8148 30.432C93.2388 29.8347 92.4388 29.536 91.4148 29.536C90.4121 29.536 89.6228 29.8453 89.0468 30.464C88.4708 31.0613 88.1828 31.904 88.1828 32.992V37.408C88.1828 38.496 88.4708 39.3493 89.0468 39.968C89.6228 40.5653 90.4121 40.864 91.4148 40.864ZM110.506 44.288C109.013 44.288 107.712 44.0107 106.602 43.456C105.514 42.88 104.661 42.08 104.042 41.056C103.445 40.0107 103.146 38.784 103.146 37.376V33.024C103.146 31.616 103.445 30.4 104.042 29.376C104.661 28.3307 105.514 27.5307 106.602 26.976C107.712 26.4 109.013 26.112 110.506 26.112C112.021 26.112 113.322 26.4 114.41 26.976C115.498 27.5307 116.341 28.3307 116.938 29.376C117.557 30.4 117.866 31.6053 117.866 32.992V37.376C117.866 38.784 117.557 40.0107 116.938 41.056C116.341 42.08 115.498 42.88 114.41 43.456C113.322 44.0107 112.021 44.288 110.506 44.288ZM110.506 40.8C111.573 40.8 112.394 40.512 112.97 39.936C113.568 39.3387 113.866 38.4853 113.866 37.376V33.024C113.866 31.8933 113.568 31.04 112.97 30.464C112.394 29.888 111.573 29.6 110.506 29.6C109.461 29.6 108.64 29.888 108.042 30.464C107.445 31.04 107.146 31.8933 107.146 33.024V37.376C107.146 38.4853 107.445 39.3387 108.042 39.936C108.64 40.512 109.461 40.8 110.506 40.8ZM129.694 44.32C127.454 44.32 125.694 43.7013 124.414 42.464C123.134 41.2053 122.494 39.4987 122.494 37.344V26.4H126.494V37.312C126.494 38.4427 126.771 39.3173 127.326 39.936C127.88 40.5333 128.67 40.832 129.694 40.832C130.696 40.832 131.475 40.5333 132.03 39.936C132.606 39.3173 132.894 38.4427 132.894 37.312V26.4H136.894V37.344C136.894 39.4987 136.243 41.2053 134.942 42.464C133.64 43.7013 131.891 44.32 129.694 44.32ZM150.801 44C149.116 44 147.793 43.5307 146.833 42.592C145.895 41.6533 145.425 40.3627 145.425 38.72V30.016H140.657V26.4H145.425V21.44H149.457V26.4H156.209V30.016H149.457V38.72C149.457 39.8293 150.001 40.384 151.089 40.384H155.889V44H150.801ZM45.8078 86V62.64H53.5838C55.1411 62.64 56.4958 62.9387 57.6478 63.536C58.8211 64.1333 59.7278 64.976 60.3678 66.064C61.0078 67.1307 61.3278 68.3893 61.3278 69.84C61.3278 71.2693 60.9971 72.528 60.3358 73.616C59.6958 74.704 58.7998 75.5467 57.6478 76.144C56.4958 76.7413 55.1411 77.04 53.5838 77.04H49.8078V86H45.8078ZM49.8078 73.424H53.5838C54.6931 73.424 55.5784 73.104 56.2398 72.464C56.9224 71.8027 57.2638 70.928 57.2638 69.84C57.2638 68.7307 56.9224 67.856 56.2398 67.216C55.5784 66.576 54.6931 66.256 53.5838 66.256H49.8078V73.424ZM65.5393 86V68.4H69.3153V71.76H70.3073L69.1233 73.808C69.1233 71.9093 69.5499 70.48 70.4033 69.52C71.2566 68.56 72.5153 68.08 74.1793 68.08C76.0779 68.08 77.5713 68.6667 78.6593 69.84C79.7473 71.0133 80.2913 72.6347 80.2913 74.704V75.984H76.0993V74.992C76.0993 73.8613 75.8006 72.9867 75.2033 72.368C74.6273 71.7493 73.8273 71.44 72.8033 71.44C71.7579 71.44 70.9473 71.7493 70.3713 72.368C69.8166 72.9867 69.5393 73.8613 69.5393 74.992V86H65.5393ZM91.3188 86.288C89.8254 86.288 88.5241 86.0107 87.4148 85.456C86.3268 84.88 85.4734 84.08 84.8548 83.056C84.2574 82.0107 83.9588 80.784 83.9588 79.376V75.024C83.9588 73.616 84.2574 72.4 84.8548 71.376C85.4734 70.3307 86.3268 69.5307 87.4148 68.976C88.5241 68.4 89.8254 68.112 91.3188 68.112C92.8334 68.112 94.1348 68.4 95.2228 68.976C96.3108 69.5307 97.1534 70.3307 97.7508 71.376C98.3694 72.4 98.6788 73.6053 98.6788 74.992V79.376C98.6788 80.784 98.3694 82.0107 97.7508 83.056C97.1534 84.08 96.3108 84.88 95.2228 85.456C94.1348 86.0107 92.8334 86.288 91.3188 86.288ZM91.3188 82.8C92.3854 82.8 93.2068 82.512 93.7828 81.936C94.3801 81.3387 94.6788 80.4853 94.6788 79.376V75.024C94.6788 73.8933 94.3801 73.04 93.7828 72.464C93.2068 71.888 92.3854 71.6 91.3188 71.6C90.2734 71.6 89.4521 71.888 88.8548 72.464C88.2574 73.04 87.9588 73.8933 87.9588 75.024V79.376C87.9588 80.4853 88.2574 81.3387 88.8548 81.936C89.4521 82.512 90.2734 82.8 91.3188 82.8ZM103.53 91.76V88.048H108.234C109.301 88.048 110.122 87.76 110.698 87.184C111.274 86.608 111.562 85.7973 111.562 84.752V72.112H104.49V68.4H115.562V84.848C115.562 86.9813 114.922 88.6667 113.642 89.904C112.362 91.1413 110.634 91.76 108.458 91.76H103.53ZM113.418 65.456C112.608 65.456 111.968 65.2533 111.498 64.848C111.029 64.4213 110.794 63.856 110.794 63.152C110.794 62.448 111.029 61.8933 111.498 61.488C111.968 61.0613 112.608 60.848 113.418 60.848C114.229 60.848 114.869 61.0613 115.338 61.488C115.808 61.8933 116.042 62.448 116.042 63.152C116.042 63.856 115.808 64.4213 115.338 64.848C114.869 65.2533 114.229 65.456 113.418 65.456ZM129.726 86.32C128.232 86.32 126.931 86.032 125.822 85.456C124.712 84.88 123.848 84.08 123.23 83.056C122.632 82.0107 122.334 80.7947 122.334 79.408V74.992C122.334 73.6053 122.632 72.4 123.23 71.376C123.848 70.3307 124.712 69.52 125.822 68.944C126.931 68.368 128.232 68.08 129.726 68.08C131.198 68.08 132.478 68.368 133.566 68.944C134.675 69.52 135.528 70.3307 136.126 71.376C136.744 72.4 137.054 73.6053 137.054 74.992V78.16H126.206V79.408C126.206 80.6453 126.504 81.584 127.102 82.224C127.699 82.8427 128.584 83.152 129.758 83.152C130.654 83.152 131.379 83.0027 131.934 82.704C132.488 82.384 132.84 81.9253 132.99 81.328H136.926C136.627 82.8427 135.816 84.0587 134.494 84.976C133.192 85.872 131.603 86.32 129.726 86.32ZM133.182 75.92V74.96C133.182 73.744 132.894 72.816 132.318 72.176C131.742 71.5147 130.878 71.184 129.726 71.184C128.574 71.184 127.699 71.5147 127.102 72.176C126.504 72.8373 126.206 73.776 126.206 74.992V75.664L133.47 75.6L133.182 75.92ZM148.977 86.32C147.484 86.32 146.172 86.0427 145.041 85.488C143.932 84.912 143.068 84.112 142.449 83.088C141.831 82.0427 141.521 80.816 141.521 79.408V74.992C141.521 73.5627 141.831 72.336 142.449 71.312C143.068 70.288 143.932 69.4987 145.041 68.944C146.172 68.368 147.484 68.08 148.977 68.08C151.196 68.08 152.967 68.656 154.289 69.808C155.612 70.9387 156.305 72.4853 156.369 74.448H152.369C152.305 73.5307 151.975 72.8267 151.377 72.336C150.801 71.824 150.001 71.568 148.977 71.568C147.911 71.568 147.068 71.8667 146.449 72.464C145.831 73.04 145.521 73.872 145.521 74.96V79.408C145.521 80.496 145.831 81.3387 146.449 81.936C147.068 82.5333 147.911 82.832 148.977 82.832C150.001 82.832 150.801 82.5867 151.377 82.096C151.975 81.584 152.305 80.8693 152.369 79.952H156.369C156.305 81.9147 155.612 83.472 154.289 84.624C152.967 85.7547 151.196 86.32 148.977 86.32ZM169.989 86C168.303 86 166.981 85.5307 166.021 84.592C165.082 83.6533 164.613 82.3627 164.613 80.72V72.016H159.845V68.4H164.613V63.44H168.645V68.4H175.397V72.016H168.645V80.72C168.645 81.8293 169.189 82.384 170.277 82.384H175.077V86H169.989Z" fill="black"/>
</svg>
