<svg width="80" height="43" viewBox="0 0 230 113" fill="none" xmlns="http://www.w3.org/2000/svg">
<path d="M10 46C10 24.4609 27.4609 7 49 7H191C212.539 7 230 24.4609 230 46V74C230 95.5391 212.539 113 191 113H49C27.4609 113 10 95.5391 10 74V46Z" fill="black"/>
<path d="M3.5 39C3.5 19.3939 19.3939 3.5 39 3.5H181C200.606 3.5 216.5 19.3939 216.5 39V67C216.5 86.6061 200.606 102.5 181 102.5H39C19.3939 102.5 3.5 86.6061 3.5 67V39Z" fill="#F64740" stroke="black" stroke-width="7"/>
<path d="M54.9015 44V20.64H58.9015V30.016H65.1735V20.64H69.1735V44H65.1735V33.728H58.9015V44H54.9015ZM81.225 44.288C79.7317 44.288 78.4303 44.0107 77.321 43.456C76.233 42.88 75.3797 42.08 74.761 41.056C74.1637 40.0107 73.865 38.784 73.865 37.376V33.024C73.865 31.616 74.1637 30.4 74.761 29.376C75.3797 28.3307 76.233 27.5307 77.321 26.976C78.4303 26.4 79.7317 26.112 81.225 26.112C82.7397 26.112 84.041 26.4 85.129 26.976C86.217 27.5307 87.0597 28.3307 87.657 29.376C88.2757 30.4 88.585 31.6053 88.585 32.992V37.376C88.585 38.784 88.2757 40.0107 87.657 41.056C87.0597 42.08 86.217 42.88 85.129 43.456C84.041 44.0107 82.7397 44.288 81.225 44.288ZM81.225 40.8C82.2917 40.8 83.113 40.512 83.689 39.936C84.2863 39.3387 84.585 38.4853 84.585 37.376V33.024C84.585 31.8933 84.2863 31.04 83.689 30.464C83.113 29.888 82.2917 29.6 81.225 29.6C80.1797 29.6 79.3583 29.888 78.761 30.464C78.1637 31.04 77.865 31.8933 77.865 33.024V37.376C77.865 38.4853 78.1637 39.3387 78.761 39.936C79.3583 40.512 80.1797 40.8 81.225 40.8ZM94.1405 44L91.4525 26.4H94.7805L96.2525 37.184C96.3378 37.8027 96.4125 38.4853 96.4765 39.232C96.5618 39.9787 96.6258 40.5973 96.6685 41.088C96.7325 40.5973 96.8178 39.9787 96.9245 39.232C97.0312 38.4853 97.1272 37.8027 97.2125 37.184L98.8765 26.4H101.981L103.613 37.184C103.698 37.8027 103.794 38.496 103.901 39.264C104.007 40.0107 104.093 40.6293 104.157 41.12C104.199 40.608 104.263 39.9787 104.349 39.232C104.455 38.464 104.541 37.7813 104.605 37.184L106.173 26.4H109.373L106.621 44H102.493L100.957 33.152C100.871 32.5547 100.775 31.8933 100.669 31.168C100.562 30.4213 100.477 29.8133 100.413 29.344C100.349 29.8133 100.263 30.4213 100.157 31.168C100.071 31.8933 99.9752 32.5547 99.8685 33.152L98.2685 44H94.1405ZM136.772 44V24.352H130.66V20.64H146.916V24.352H140.804V44H136.772ZM157.975 44.288C156.482 44.288 155.18 44.0107 154.071 43.456C152.983 42.88 152.13 42.08 151.511 41.056C150.914 40.0107 150.615 38.784 150.615 37.376V33.024C150.615 31.616 150.914 30.4 151.511 29.376C152.13 28.3307 152.983 27.5307 154.071 26.976C155.18 26.4 156.482 26.112 157.975 26.112C159.49 26.112 160.791 26.4 161.879 26.976C162.967 27.5307 163.81 28.3307 164.407 29.376C165.026 30.4 165.335 31.6053 165.335 32.992V37.376C165.335 38.784 165.026 40.0107 164.407 41.056C163.81 42.08 162.967 42.88 161.879 43.456C160.791 44.0107 159.49 44.288 157.975 44.288ZM157.975 40.8C159.042 40.8 159.863 40.512 160.439 39.936C161.036 39.3387 161.335 38.4853 161.335 37.376V33.024C161.335 31.8933 161.036 31.04 160.439 30.464C159.863 29.888 159.042 29.6 157.975 29.6C156.93 29.6 156.108 29.888 155.511 30.464C154.914 31.04 154.615 31.8933 154.615 33.024V37.376C154.615 38.4853 154.914 39.3387 155.511 39.936C156.108 40.512 156.93 40.8 157.975 40.8ZM74.089 86V62.64H81.865C83.4223 62.64 84.777 62.9387 85.929 63.536C87.1023 64.1333 88.009 64.976 88.649 66.064C89.289 67.1307 89.609 68.3893 89.609 69.84C89.609 71.2693 89.2783 72.528 88.617 73.616C87.977 74.704 87.081 75.5467 85.929 76.144C84.777 76.7413 83.4223 77.04 81.865 77.04H78.089V86H74.089ZM78.089 73.424H81.865C82.9743 73.424 83.8597 73.104 84.521 72.464C85.2037 71.8027 85.545 70.928 85.545 69.84C85.545 68.7307 85.2037 67.856 84.521 67.216C83.8597 66.576 82.9743 66.256 81.865 66.256H78.089V73.424ZM103.101 86C101.949 86 100.935 85.7653 100.061 85.296C99.2072 84.8267 98.5352 84.1653 98.0445 83.312C97.5538 82.4373 97.3085 81.4347 97.3085 80.304V66.256H91.6765V62.64H101.309V80.304C101.309 80.944 101.49 81.456 101.853 81.84C102.237 82.2027 102.749 82.384 103.389 82.384H108.701V86H103.101ZM117.648 86.32C115.835 86.32 114.405 85.84 113.36 84.88C112.315 83.92 111.792 82.6293 111.792 81.008C111.792 79.28 112.368 77.9467 113.52 77.008C114.672 76.0693 116.304 75.6 118.416 75.6H122.8V74.096C122.8 73.2427 122.523 72.5813 121.968 72.112C121.413 71.6213 120.656 71.376 119.696 71.376C118.821 71.376 118.096 71.568 117.52 71.952C116.944 72.336 116.603 72.8587 116.496 73.52H112.592C112.784 71.856 113.531 70.5333 114.832 69.552C116.133 68.5707 117.797 68.08 119.824 68.08C121.979 68.08 123.675 68.624 124.912 69.712C126.171 70.7787 126.8 72.2293 126.8 74.064V86H122.928V82.928H122.288L122.928 82.064C122.928 83.3653 122.448 84.4 121.488 85.168C120.528 85.936 119.248 86.32 117.648 86.32ZM118.96 83.312C120.091 83.312 121.008 83.024 121.712 82.448C122.437 81.872 122.8 81.1253 122.8 80.208V78.064H118.48C117.669 78.064 117.019 78.2987 116.528 78.768C116.037 79.2373 115.792 79.856 115.792 80.624C115.792 81.456 116.069 82.1173 116.624 82.608C117.2 83.0773 117.979 83.312 118.96 83.312ZM134.5 91.76L136.964 85.04L130.404 68.4H134.788L138.052 77.392C138.222 77.8827 138.393 78.48 138.564 79.184C138.734 79.8667 138.862 80.432 138.948 80.88C139.054 80.432 139.193 79.8667 139.364 79.184C139.534 78.48 139.705 77.8827 139.876 77.392L142.948 68.4H147.172L138.692 91.76H134.5Z" fill="black"/>
</svg>
