<svg width="80" height="43" viewBox="0 0 230 113" fill="none" xmlns="http://www.w3.org/2000/svg">
<path d="M10 46C10 24.4609 27.4609 7 49 7H191C212.539 7 230 24.4609 230 46V74C230 95.5391 212.539 113 191 113H49C27.4609 113 10 95.5391 10 74V46Z" fill="black"/>
<path d="M3.5 39C3.5 19.3939 19.3939 3.5 39 3.5H181C200.606 3.5 216.5 19.3939 216.5 39V67C216.5 86.6061 200.606 102.5 181 102.5H39C19.3939 102.5 3.5 86.6061 3.5 67V39Z" fill="#F64740" stroke="black" stroke-width="7"/>
<path d="M71.7593 44.32C70.2659 44.32 68.9539 44.0427 67.8233 43.488C66.7139 42.912 65.8499 42.112 65.2313 41.088C64.6339 40.0427 64.3353 38.816 64.3353 37.408V27.232C64.3353 25.8027 64.6339 24.576 65.2313 23.552C65.8499 22.528 66.7139 21.7387 67.8233 21.184C68.9539 20.608 70.2659 20.32 71.7593 20.32C73.2739 20.32 74.5753 20.608 75.6633 21.184C76.7726 21.7387 77.6366 22.528 78.2553 23.552C78.8739 24.576 79.1833 25.8027 79.1833 27.232H75.1513C75.1513 26.1227 74.8526 25.28 74.2553 24.704C73.6793 24.128 72.8473 23.84 71.7593 23.84C70.6713 23.84 69.8286 24.128 69.2313 24.704C68.6339 25.28 68.3353 26.112 68.3353 27.2V37.408C68.3353 38.496 68.6339 39.3387 69.2313 39.936C69.8286 40.512 70.6713 40.8 71.7593 40.8C72.8473 40.8 73.6793 40.512 74.2553 39.936C74.8526 39.3387 75.1513 38.496 75.1513 37.408H79.1833C79.1833 38.7947 78.8739 40.0107 78.2553 41.056C77.6366 42.1013 76.7726 42.912 75.6633 43.488C74.5753 44.0427 73.2739 44.32 71.7593 44.32ZM93.5068 44C92.3548 44 91.3414 43.7653 90.4668 43.296C89.6134 42.8267 88.9414 42.1653 88.4508 41.312C87.9601 40.4373 87.7148 39.4347 87.7148 38.304V24.256H82.0828V20.64H91.7148V38.304C91.7148 38.944 91.8961 39.456 92.2588 39.84C92.6428 40.2027 93.1548 40.384 93.7948 40.384H99.1068V44H93.5068ZM108.054 44.32C106.241 44.32 104.812 43.84 103.766 42.88C102.721 41.92 102.198 40.6293 102.198 39.008C102.198 37.28 102.774 35.9467 103.926 35.008C105.078 34.0693 106.71 33.6 108.822 33.6H113.206V32.096C113.206 31.2427 112.929 30.5813 112.374 30.112C111.82 29.6213 111.062 29.376 110.102 29.376C109.228 29.376 108.502 29.568 107.926 29.952C107.35 30.336 107.009 30.8587 106.902 31.52H102.998C103.19 29.856 103.937 28.5333 105.238 27.552C106.54 26.5707 108.204 26.08 110.23 26.08C112.385 26.08 114.081 26.624 115.318 27.712C116.577 28.7787 117.206 30.2293 117.206 32.064V44H113.334V40.928H112.694L113.334 40.064C113.334 41.3653 112.854 42.4 111.894 43.168C110.934 43.936 109.654 44.32 108.054 44.32ZM109.366 41.312C110.497 41.312 111.414 41.024 112.118 40.448C112.844 39.872 113.206 39.1253 113.206 38.208V36.064H108.886C108.076 36.064 107.425 36.2987 106.934 36.768C106.444 37.2373 106.198 37.856 106.198 38.624C106.198 39.456 106.476 40.1173 107.03 40.608C107.606 41.0773 108.385 41.312 109.366 41.312ZM128.522 44.288C127.178 44.288 126.004 44.0747 125.002 43.648C123.999 43.2213 123.21 42.6347 122.634 41.888C122.079 41.12 121.78 40.224 121.738 39.2H125.738C125.78 39.7547 126.047 40.2027 126.538 40.544C127.05 40.8853 127.711 41.056 128.522 41.056H129.93C130.911 41.056 131.647 40.864 132.138 40.48C132.628 40.096 132.874 39.5733 132.874 38.912C132.874 38.2933 132.65 37.8133 132.202 37.472C131.775 37.1093 131.103 36.8747 130.186 36.768L128.01 36.448C126.004 36.1707 124.532 35.6373 123.594 34.848C122.655 34.0587 122.186 32.8747 122.186 31.296C122.186 29.6533 122.74 28.384 123.85 27.488C124.959 26.5707 126.591 26.112 128.746 26.112H129.962C131.924 26.112 133.492 26.5493 134.666 27.424C135.839 28.2987 136.468 29.472 136.554 30.944H132.554C132.49 30.4747 132.223 30.0907 131.754 29.792C131.306 29.4933 130.708 29.344 129.962 29.344H128.746C127.828 29.344 127.156 29.5147 126.73 29.856C126.324 30.176 126.122 30.656 126.122 31.296C126.122 31.8933 126.303 32.3413 126.666 32.64C127.028 32.9173 127.615 33.12 128.426 33.248L130.698 33.568C132.788 33.8667 134.324 34.432 135.306 35.264C136.308 36.0747 136.81 37.28 136.81 38.88C136.81 40.5867 136.223 41.92 135.05 42.88C133.898 43.8187 132.191 44.288 129.93 44.288H128.522ZM147.709 44.288C146.365 44.288 145.192 44.0747 144.189 43.648C143.187 43.2213 142.397 42.6347 141.821 41.888C141.267 41.12 140.968 40.224 140.925 39.2H144.925C144.968 39.7547 145.235 40.2027 145.725 40.544C146.237 40.8853 146.899 41.056 147.709 41.056H149.117C150.099 41.056 150.835 40.864 151.325 40.48C151.816 40.096 152.061 39.5733 152.061 38.912C152.061 38.2933 151.837 37.8133 151.389 37.472C150.963 37.1093 150.291 36.8747 149.373 36.768L147.197 36.448C145.192 36.1707 143.72 35.6373 142.781 34.848C141.843 34.0587 141.373 32.8747 141.373 31.296C141.373 29.6533 141.928 28.384 143.037 27.488C144.147 26.5707 145.779 26.112 147.933 26.112H149.149C151.112 26.112 152.68 26.5493 153.853 27.424C155.027 28.2987 155.656 29.472 155.741 30.944H151.741C151.677 30.4747 151.411 30.0907 150.941 29.792C150.493 29.4933 149.896 29.344 149.149 29.344H147.933C147.016 29.344 146.344 29.5147 145.917 29.856C145.512 30.176 145.309 30.656 145.309 31.296C145.309 31.8933 145.491 32.3413 145.853 32.64C146.216 32.9173 146.803 33.12 147.613 33.248L149.885 33.568C151.976 33.8667 153.512 34.432 154.493 35.264C155.496 36.0747 155.997 37.28 155.997 38.88C155.997 40.5867 155.411 41.92 154.237 42.88C153.085 43.8187 151.379 44.288 149.117 44.288H147.709ZM74.505 86V82.48H79.209V66.16H74.505V62.64H87.945V66.16H83.241V82.48H87.945V86H74.505ZM93.2765 86V68.4H97.1805V71.76H98.2685L97.1805 72.688C97.1805 71.2373 97.5965 70.1067 98.4285 69.296C99.2818 68.4853 100.445 68.08 101.917 68.08C103.645 68.08 105.021 68.656 106.045 69.808C107.09 70.96 107.613 72.5067 107.613 74.448V86H103.613V74.864C103.613 73.7973 103.335 72.976 102.781 72.4C102.226 71.824 101.447 71.536 100.445 71.536C99.4632 71.536 98.6845 71.8347 98.1085 72.432C97.5538 73.0293 97.2765 73.8827 97.2765 74.992V86H93.2765ZM116.56 86V73.968H111.728V70.352H116.56V67.696C116.56 66.16 117.072 64.9333 118.096 64.016C119.12 63.0987 120.475 62.64 122.16 62.64H127.312V66.16H122.256C121.744 66.16 121.328 66.3093 121.008 66.608C120.709 66.8853 120.56 67.2693 120.56 67.76V70.352H127.312V73.968H120.56V86H116.56ZM138.788 86.288C137.294 86.288 135.993 86.0107 134.884 85.456C133.796 84.88 132.942 84.08 132.324 83.056C131.726 82.0107 131.428 80.784 131.428 79.376V75.024C131.428 73.616 131.726 72.4 132.324 71.376C132.942 70.3307 133.796 69.5307 134.884 68.976C135.993 68.4 137.294 68.112 138.788 68.112C140.302 68.112 141.604 68.4 142.692 68.976C143.78 69.5307 144.622 70.3307 145.22 71.376C145.838 72.4 146.148 73.6053 146.148 74.992V79.376C146.148 80.784 145.838 82.0107 145.22 83.056C144.622 84.08 143.78 84.88 142.692 85.456C141.604 86.0107 140.302 86.288 138.788 86.288ZM138.788 82.8C139.854 82.8 140.676 82.512 141.252 81.936C141.849 81.3387 142.148 80.4853 142.148 79.376V75.024C142.148 73.8933 141.849 73.04 141.252 72.464C140.676 71.888 139.854 71.6 138.788 71.6C137.742 71.6 136.921 71.888 136.324 72.464C135.726 73.04 135.428 73.8933 135.428 75.024V79.376C135.428 80.4853 135.726 81.3387 136.324 81.936C136.921 82.512 137.742 82.8 138.788 82.8Z" fill="black"/>
</svg>
