<svg width="80" height="43" viewBox="0 0 230 113" fill="none" xmlns="http://www.w3.org/2000/svg">
<path d="M10 46C10 24.4609 27.4609 7 49 7H191C212.539 7 230 24.4609 230 46V74C230 95.5391 212.539 113 191 113H49C27.4609 113 10 95.5391 10 74V46Z" fill="black"/>
<path d="M3.5 39C3.5 19.3939 19.3939 3.5 39 3.5H181C200.606 3.5 216.5 19.3939 216.5 39V67C216.5 86.6061 200.606 102.5 181 102.5H39C19.3939 102.5 3.5 86.6061 3.5 67V39Z" fill="#F64740" stroke="black" stroke-width="7"/>
<path d="M53.0718 44.32C51.5784 44.32 50.2664 44.0427 49.1358 43.488C48.0264 42.912 47.1624 42.112 46.5438 41.088C45.9464 40.0427 45.6478 38.816 45.6478 37.408V27.232C45.6478 25.8027 45.9464 24.576 46.5438 23.552C47.1624 22.528 48.0264 21.7387 49.1358 21.184C50.2664 20.608 51.5784 20.32 53.0718 20.32C54.5864 20.32 55.8878 20.608 56.9758 21.184C58.0851 21.7387 58.9491 22.528 59.5678 23.552C60.1864 24.576 60.4958 25.8027 60.4958 27.232H56.4638C56.4638 26.1227 56.1651 25.28 55.5678 24.704C54.9918 24.128 54.1598 23.84 53.0718 23.84C51.9838 23.84 51.1411 24.128 50.5438 24.704C49.9464 25.28 49.6478 26.112 49.6478 27.2V37.408C49.6478 38.496 49.9464 39.3387 50.5438 39.936C51.1411 40.512 51.9838 40.8 53.0718 40.8C54.1598 40.8 54.9918 40.512 55.5678 39.936C56.1651 39.3387 56.4638 38.496 56.4638 37.408H60.4958C60.4958 38.7947 60.1864 40.0107 59.5678 41.056C58.9491 42.1013 58.0851 42.912 56.9758 43.488C55.8878 44.0427 54.5864 44.32 53.0718 44.32ZM72.1313 44.288C70.6379 44.288 69.3366 44.0107 68.2273 43.456C67.1393 42.88 66.2859 42.08 65.6673 41.056C65.0699 40.0107 64.7713 38.784 64.7713 37.376V33.024C64.7713 31.616 65.0699 30.4 65.6673 29.376C66.2859 28.3307 67.1393 27.5307 68.2273 26.976C69.3366 26.4 70.6379 26.112 72.1313 26.112C73.6459 26.112 74.9473 26.4 76.0353 26.976C77.1233 27.5307 77.9659 28.3307 78.5633 29.376C79.1819 30.4 79.4913 31.6053 79.4913 32.992V37.376C79.4913 38.784 79.1819 40.0107 78.5633 41.056C77.9659 42.08 77.1233 42.88 76.0353 43.456C74.9473 44.0107 73.6459 44.288 72.1313 44.288ZM72.1313 40.8C73.1979 40.8 74.0193 40.512 74.5953 39.936C75.1926 39.3387 75.4913 38.4853 75.4913 37.376V33.024C75.4913 31.8933 75.1926 31.04 74.5953 30.464C74.0193 29.888 73.1979 29.6 72.1313 29.6C71.0859 29.6 70.2646 29.888 69.6673 30.464C69.0699 31.04 68.7713 31.8933 68.7713 33.024V37.376C68.7713 38.4853 69.0699 39.3387 69.6673 39.936C70.2646 40.512 71.0859 40.8 72.1313 40.8ZM84.1828 44V26.4H88.0868V29.76H89.1748L88.0868 30.688C88.0868 29.2373 88.5028 28.1067 89.3348 27.296C90.1881 26.4853 91.3508 26.08 92.8228 26.08C94.5508 26.08 95.9268 26.656 96.9508 27.808C97.9961 28.96 98.5188 30.5067 98.5188 32.448V44H94.5188V32.864C94.5188 31.7973 94.2414 30.976 93.6868 30.4C93.1321 29.824 92.3534 29.536 91.3508 29.536C90.3694 29.536 89.5908 29.8347 89.0148 30.432C88.4601 31.0293 88.1828 31.8827 88.1828 32.992V44H84.1828ZM103.37 44V26.4H107.274V29.76H108.362L107.274 30.688C107.274 29.2373 107.69 28.1067 108.522 27.296C109.376 26.4853 110.538 26.08 112.01 26.08C113.738 26.08 115.114 26.656 116.138 27.808C117.184 28.96 117.706 30.5067 117.706 32.448V44H113.706V32.864C113.706 31.7973 113.429 30.976 112.874 30.4C112.32 29.824 111.541 29.536 110.538 29.536C109.557 29.536 108.778 29.8347 108.202 30.432C107.648 31.0293 107.37 31.8827 107.37 32.992V44H103.37ZM129.726 44.32C128.232 44.32 126.931 44.032 125.822 43.456C124.712 42.88 123.848 42.08 123.23 41.056C122.632 40.0107 122.334 38.7947 122.334 37.408V32.992C122.334 31.6053 122.632 30.4 123.23 29.376C123.848 28.3307 124.712 27.52 125.822 26.944C126.931 26.368 128.232 26.08 129.726 26.08C131.198 26.08 132.478 26.368 133.566 26.944C134.675 27.52 135.528 28.3307 136.126 29.376C136.744 30.4 137.054 31.6053 137.054 32.992V36.16H126.206V37.408C126.206 38.6453 126.504 39.584 127.102 40.224C127.699 40.8427 128.584 41.152 129.758 41.152C130.654 41.152 131.379 41.0027 131.934 40.704C132.488 40.384 132.84 39.9253 132.99 39.328H136.926C136.627 40.8427 135.816 42.0587 134.494 42.976C133.192 43.872 131.603 44.32 129.726 44.32ZM133.182 33.92V32.96C133.182 31.744 132.894 30.816 132.318 30.176C131.742 29.5147 130.878 29.184 129.726 29.184C128.574 29.184 127.699 29.5147 127.102 30.176C126.504 30.8373 126.206 31.776 126.206 32.992V33.664L133.47 33.6L133.182 33.92ZM148.977 44.32C147.484 44.32 146.172 44.0427 145.041 43.488C143.932 42.912 143.068 42.112 142.449 41.088C141.831 40.0427 141.521 38.816 141.521 37.408V32.992C141.521 31.5627 141.831 30.336 142.449 29.312C143.068 28.288 143.932 27.4987 145.041 26.944C146.172 26.368 147.484 26.08 148.977 26.08C151.196 26.08 152.967 26.656 154.289 27.808C155.612 28.9387 156.305 30.4853 156.369 32.448H152.369C152.305 31.5307 151.975 30.8267 151.377 30.336C150.801 29.824 150.001 29.568 148.977 29.568C147.911 29.568 147.068 29.8667 146.449 30.464C145.831 31.04 145.521 31.872 145.521 32.96V37.408C145.521 38.496 145.831 39.3387 146.449 39.936C147.068 40.5333 147.911 40.832 148.977 40.832C150.001 40.832 150.801 40.5867 151.377 40.096C151.975 39.584 152.305 38.8693 152.369 37.952H156.369C156.305 39.9147 155.612 41.472 154.289 42.624C152.967 43.7547 151.196 44.32 148.977 44.32ZM169.989 44C168.303 44 166.981 43.5307 166.021 42.592C165.082 41.6533 164.613 40.3627 164.613 38.72V30.016H159.845V26.4H164.613V21.44H168.645V26.4H175.397V30.016H168.645V38.72C168.645 39.8293 169.189 40.384 170.277 40.384H175.077V44H169.989ZM55.8495 86L53.4495 62.64H56.9055L58.3135 78.96C58.3562 79.3227 58.3882 79.7707 58.4095 80.304C58.4522 80.816 58.4842 81.3387 58.5055 81.872C58.5482 82.4053 58.5695 82.8747 58.5695 83.28C58.6122 82.8747 58.6548 82.4053 58.6975 81.872C58.7402 81.3387 58.7828 80.816 58.8255 80.304C58.8895 79.7707 58.9428 79.3227 58.9855 78.96L60.9055 62.64H64.2655L66.0575 78.96C66.1215 79.3227 66.1748 79.7707 66.2175 80.304C66.2815 80.816 66.3455 81.3387 66.4095 81.872C66.4735 82.4053 66.5268 82.8747 66.5695 83.28C66.5908 82.8747 66.6122 82.4053 66.6335 81.872C66.6548 81.3387 66.6762 80.816 66.6975 80.304C66.7402 79.7707 66.7828 79.3227 66.8255 78.96L68.2015 62.64H71.6255L69.0975 86H64.6815L62.9535 69.616C62.9108 69.2107 62.8575 68.7413 62.7935 68.208C62.7508 67.6533 62.7082 67.1093 62.6655 66.576C62.6228 66.0213 62.5908 65.552 62.5695 65.168C62.5482 65.552 62.5055 66.0213 62.4415 66.576C62.3988 67.1093 62.3562 67.6533 62.3135 68.208C62.2708 68.7413 62.2282 69.2107 62.1855 69.616L60.2975 86H55.8495ZM79.773 86.32C77.9597 86.32 76.5303 85.84 75.485 84.88C74.4397 83.92 73.917 82.6293 73.917 81.008C73.917 79.28 74.493 77.9467 75.645 77.008C76.797 76.0693 78.429 75.6 80.541 75.6H84.925V74.096C84.925 73.2427 84.6477 72.5813 84.093 72.112C83.5383 71.6213 82.781 71.376 81.821 71.376C80.9463 71.376 80.221 71.568 79.645 71.952C79.069 72.336 78.7277 72.8587 78.621 73.52H74.717C74.909 71.856 75.6557 70.5333 76.957 69.552C78.2583 68.5707 79.9223 68.08 81.949 68.08C84.1037 68.08 85.7997 68.624 87.037 69.712C88.2957 70.7787 88.925 72.2293 88.925 74.064V86H85.053V82.928H84.413L85.053 82.064C85.053 83.3653 84.573 84.4 83.613 85.168C82.653 85.936 81.373 86.32 79.773 86.32ZM81.085 83.312C82.2157 83.312 83.133 83.024 83.837 82.448C84.5623 81.872 84.925 81.1253 84.925 80.208V78.064H80.605C79.7943 78.064 79.1437 78.2987 78.653 78.768C78.1623 79.2373 77.917 79.856 77.917 80.624C77.917 81.456 78.1943 82.1173 78.749 82.608C79.325 83.0773 80.1037 83.312 81.085 83.312ZM103.601 86C102.449 86 101.435 85.7653 100.561 85.296C99.7072 84.8267 99.0352 84.1653 98.5445 83.312C98.0538 82.4373 97.8085 81.4347 97.8085 80.304V66.256H92.1765V62.64H101.809V80.304C101.809 80.944 101.99 81.456 102.353 81.84C102.737 82.2027 103.249 82.384 103.889 82.384H109.201V86H103.601ZM122.788 86C121.636 86 120.623 85.7653 119.748 85.296C118.895 84.8267 118.223 84.1653 117.732 83.312C117.241 82.4373 116.996 81.4347 116.996 80.304V66.256H111.364V62.64H120.996V80.304C120.996 80.944 121.177 81.456 121.54 81.84C121.924 82.2027 122.436 82.384 123.076 82.384H128.388V86H122.788ZM139.32 86.32C137.826 86.32 136.525 86.032 135.416 85.456C134.306 84.88 133.442 84.08 132.824 83.056C132.226 82.0107 131.928 80.7947 131.928 79.408V74.992C131.928 73.6053 132.226 72.4 132.824 71.376C133.442 70.3307 134.306 69.52 135.416 68.944C136.525 68.368 137.826 68.08 139.32 68.08C140.792 68.08 142.072 68.368 143.16 68.944C144.269 69.52 145.122 70.3307 145.72 71.376C146.338 72.4 146.648 73.6053 146.648 74.992V78.16H135.8V79.408C135.8 80.6453 136.098 81.584 136.696 82.224C137.293 82.8427 138.178 83.152 139.352 83.152C140.248 83.152 140.973 83.0027 141.528 82.704C142.082 82.384 142.434 81.9253 142.584 81.328H146.52C146.221 82.8427 145.41 84.0587 144.088 84.976C142.786 85.872 141.197 86.32 139.32 86.32ZM142.776 75.92V74.96C142.776 73.744 142.488 72.816 141.912 72.176C141.336 71.5147 140.472 71.184 139.32 71.184C138.168 71.184 137.293 71.5147 136.696 72.176C136.098 72.8373 135.8 73.776 135.8 74.992V75.664L143.064 75.6L142.776 75.92ZM160.395 86C158.71 86 157.387 85.5307 156.427 84.592C155.488 83.6533 155.019 82.3627 155.019 80.72V72.016H150.251V68.4H155.019V63.44H159.051V68.4H165.803V72.016H159.051V80.72C159.051 81.8293 159.595 82.384 160.683 82.384H165.483V86H160.395Z" fill="black"/>
</svg>
